<svg xmlns="http://www.w3.org/2000/svg" xmlns:xlink="http://www.w3.org/1999/xlink" width="500" zoomAndPan="magnify" viewBox="0 0 375 374.999991" height="500" preserveAspectRatio="xMidYMid meet" version="1.0"><defs><g/><clipPath id="26d2239185"><path d="M 34 34 L 341 34 L 341 341 L 34 341 Z M 34 34 " clip-rule="nonzero"/></clipPath><clipPath id="07f01f2e78"><path d="M 3.839844 71.921875 L 302.945312 3.867188 L 370.996094 302.972656 L 71.890625 371.027344 Z M 3.839844 71.921875 " clip-rule="nonzero"/></clipPath><clipPath id="38ab6f2583"><path d="M 3.835938 71.921875 L 302.945312 3.867188 L 370.996094 302.972656 L 71.890625 371.027344 Z M 3.835938 71.921875 " clip-rule="nonzero"/></clipPath></defs><g clip-path="url(#26d2239185)"><g clip-path="url(#07f01f2e78)"><g clip-path="url(#38ab6f2583)"><path fill="#70191c" d="M 160.273438 68.140625 C 226.164062 53.148438 291.730469 94.410156 306.722656 160.304688 C 321.714844 226.195312 280.453125 291.761719 214.5625 306.753906 C 148.671875 321.746094 83.101562 280.484375 68.109375 214.59375 C 53.117188 148.703125 94.382812 83.132812 160.273438 68.140625 Z M 216.097656 313.5 C 185.324219 320.5 153.140625 316.035156 125.480469 300.925781 C 104.617188 289.527344 87.335938 272.6875 75.503906 252.226562 L 67.957031 256.59375 C 80.585938 278.433594 99.035156 296.410156 121.300781 308.578125 C 150.832031 324.707031 185.183594 329.472656 218.03125 322 Z M 322.269531 216.890625 C 326.621094 197.015625 326.519531 176.8125 321.972656 156.832031 L 313.472656 158.769531 C 317.730469 177.484375 317.824219 196.414062 313.753906 215.023438 C 305.816406 251.277344 282.710938 282.398438 250.367188 300.398438 L 254.609375 308.019531 C 289.132812 288.796875 313.796875 255.582031 322.269531 216.890625 Z M 272.023438 78.429688 C 242.773438 55.75 206.527344 45.847656 169.964844 50.550781 C 165.570312 51.117188 161.140625 51.902344 156.800781 52.890625 L 158.734375 61.394531 C 162.804688 60.46875 166.957031 59.730469 171.082031 59.195312 C 205.324219 54.792969 239.273438 64.070312 266.679688 85.320312 Z M 83.054688 111.148438 L 76.015625 106.007812 C 52.441406 138.28125 44.003906 179.121094 52.863281 218.0625 L 61.363281 216.128906 C 53.0625 179.648438 60.96875 141.386719 83.054688 111.148438 Z M 336.972656 153.421875 C 333.589844 138.554688 328.070312 124.367188 320.570312 111.253906 C 311.089844 94.675781 298.710938 80.160156 283.773438 68.109375 C 246.964844 38.429688 199.441406 27.417969 153.390625 37.894531 L 155.324219 46.398438 C 198.757812 36.515625 243.582031 46.902344 278.296875 74.898438 C 292.386719 86.261719 304.066406 99.949219 313 115.578125 C 320.070312 127.945312 325.277344 141.328125 328.46875 155.355469 C 331.90625 170.46875 332.914062 185.878906 331.460938 201.164062 L 340.144531 201.988281 C 341.683594 185.777344 340.617188 169.4375 336.972656 153.421875 Z M 66.757812 107.660156 C 79.585938 88.25 97.066406 72.070312 117.308594 60.875 L 113.085938 53.242188 C 91.621094 65.117188 73.085938 82.273438 59.484375 102.851562 C 46.191406 122.957031 37.726562 146.175781 34.996094 170.003906 L 43.660156 170.996094 C 46.234375 148.523438 54.21875 126.625 66.757812 107.660156 Z M 251.28125 326.921875 C 275 316.089844 295.714844 299.1875 311.179688 278.039062 L 304.144531 272.890625 C 289.554688 292.835938 270.023438 308.777344 247.660156 318.992188 C 238.675781 323.09375 229.203125 326.289062 219.511719 328.496094 C 195.425781 333.976562 170.25 333.210938 146.710938 326.285156 C 121.71875 318.929688 99.125 304.957031 81.378906 285.875 C 64.125 267.324219 52.019531 244.386719 46.367188 219.539062 L 37.867188 221.476562 C 43.855469 247.816406 56.695312 272.140625 74.988281 291.8125 C 93.804688 312.039062 117.75 326.851562 144.246094 334.648438 C 169.214844 341.996094 195.90625 342.808594 221.445312 336.996094 C 231.714844 334.660156 241.753906 331.273438 251.28125 326.921875 Z M 251.28125 326.921875 " fill-opacity="1" fill-rule="nonzero"/></g></g></g><g fill="#ffffff" fill-opacity="1"><g transform="translate(115.043694, 282.023599)"><g><path d="M 58 -93.109375 L 42.625 -88.875 C 41.519531 -88.625 40.972656 -87.921875 40.984375 -86.765625 L 41.8125 -29.46875 C 41.78125 -28.125 41.984375 -26.484375 42.421875 -24.546875 C 42.859375 -22.617188 43.941406 -21.125 45.671875 -20.0625 C 47.410156 -19 49.460938 -18.40625 51.828125 -18.28125 C 55.046875 -18.007812 59.972656 -18.628906 66.609375 -20.140625 C 67.078125 -20.242188 67.382812 -19.984375 67.53125 -19.359375 L 67.59375 -16.359375 C 67.5 -15.679688 67.21875 -15.289062 66.75 -15.1875 L 3.203125 -0.734375 C 2.648438 -0.609375 2.300781 -0.859375 2.15625 -1.484375 L 2.109375 -4.46875 C 2.273438 -5.164062 3.164062 -5.695312 4.78125 -6.0625 C 6.40625 -6.4375 8.34375 -7.066406 10.59375 -7.953125 C 12.84375 -8.847656 14.75 -10.09375 16.3125 -11.6875 C 19.613281 -15.019531 21.1875 -20.320312 21.03125 -27.59375 C 20.976562 -28.90625 20.941406 -30.144531 20.921875 -31.3125 C 20.921875 -31.3125 20.882812 -32.757812 20.8125 -35.65625 C 20.832031 -37.40625 20.828125 -39.601562 20.796875 -42.25 C 20.773438 -44.90625 20.726562 -48.300781 20.65625 -52.4375 C 20.59375 -56.582031 20.519531 -61.660156 20.4375 -67.671875 C 20.363281 -73.679688 20.265625 -80.972656 20.140625 -89.546875 C 20.023438 -98.128906 19.875 -108.132812 19.6875 -119.5625 C 19.363281 -147.65625 19.03125 -162.453125 18.6875 -163.953125 C 17.800781 -167.828125 15.609375 -169.96875 12.109375 -170.375 C 8.609375 -170.789062 3.492188 -170.234375 -3.234375 -168.703125 L -9.390625 -167.296875 C -9.859375 -167.191406 -10.171875 -167.5 -10.328125 -168.21875 L -10.328125 -171.453125 C -10.210938 -172.734375 -9.832031 -173.445312 -9.1875 -173.59375 L 49.71875 -186.984375 C 70.582031 -191.734375 86.566406 -192.003906 97.671875 -187.796875 C 109.472656 -183.410156 117.0625 -173.789062 120.4375 -158.9375 C 122.46875 -150 120.453125 -141.148438 114.390625 -132.390625 C 109.816406 -125.785156 100.6875 -116.597656 87 -104.828125 C 85.03125 -103.210938 84.171875 -101.851562 84.421875 -100.75 C 84.671875 -99.644531 85.394531 -98.457031 86.59375 -97.1875 C 87.800781 -95.925781 89.535156 -94.160156 91.796875 -91.890625 C 94.066406 -89.617188 96.691406 -87.054688 99.671875 -84.203125 C 102.648438 -81.347656 105.9375 -78.3125 109.53125 -75.09375 C 113.125 -71.875 116.875 -68.710938 120.78125 -65.609375 C 124.6875 -62.515625 128.648438 -59.597656 132.671875 -56.859375 C 136.703125 -54.128906 140.648438 -51.789062 144.515625 -49.84375 C 153.035156 -45.625 159.941406 -44.113281 165.234375 -45.3125 L 168.328125 -46.015625 C 171.484375 -46.734375 173.378906 -46.789062 174.015625 -46.1875 C 174.648438 -45.582031 175.039062 -44.96875 175.1875 -44.34375 L 175.609375 -42.453125 C 175.972656 -40.867188 174.929688 -39.800781 172.484375 -39.25 L 163.578125 -37.21875 C 142.316406 -32.382812 121.453125 -38.609375 100.984375 -55.890625 C 94.910156 -61.066406 89.742188 -65.789062 85.484375 -70.0625 C 81.222656 -74.332031 77.753906 -77.703125 75.078125 -80.171875 C 72.398438 -82.640625 70.035156 -84.90625 67.984375 -86.96875 C 65.929688 -89.039062 64.675781 -90.359375 64.21875 -90.921875 C 63.769531 -91.484375 63.25 -91.945312 62.65625 -92.3125 C 61.363281 -93.257812 59.8125 -93.523438 58 -93.109375 Z M 55.484375 -182.4375 L 49.53125 -181.21875 C 44.863281 -180.15625 42.054688 -178.785156 41.109375 -177.109375 C 40.160156 -175.429688 39.710938 -173.929688 39.765625 -172.609375 L 40.828125 -101.171875 C 40.785156 -99.835938 40.921875 -98.476562 41.234375 -97.09375 C 41.554688 -95.71875 43.75 -95.492188 47.8125 -96.421875 C 51.882812 -97.347656 56.289062 -98.890625 61.03125 -101.046875 C 65.78125 -103.203125 70.207031 -105.765625 74.3125 -108.734375 C 78.414062 -111.703125 82.125 -115.039062 85.4375 -118.75 C 88.75 -122.457031 91.429688 -126.367188 93.484375 -130.484375 C 98.023438 -139.421875 99.296875 -148.273438 97.296875 -157.046875 C 94.941406 -167.398438 89.96875 -174.828125 82.375 -179.328125 C 74.957031 -183.785156 65.992188 -184.820312 55.484375 -182.4375 Z M 55.484375 -182.4375 "/></g></g></g></svg>